<svg width="27" height="12" viewBox="0 0 27 12" fill="none" xmlns="http://www.w3.org/2000/svg">
<path d="M1.82 3.384C2.506 3.384 3.08 2.81 3.08 2.124C3.08 1.438 2.506 0.863999 1.82 0.863999C1.134 0.863999 0.56 1.438 0.56 2.124C0.56 2.81 1.134 3.384 1.82 3.384ZM0.77 11H2.87V4H0.77V11ZM8.50872 3.804C7.58472 3.804 6.88472 4.14 6.50672 4.658V4H4.40672V11H6.50672V7.178C6.50672 6.184 7.03872 5.736 7.80872 5.736C8.48072 5.736 9.02672 6.142 9.02672 7.01V11H11.1267V6.702C11.1267 4.812 9.92272 3.804 8.50872 3.804ZM14.5568 6.044C14.5568 5.792 14.7808 5.652 15.1448 5.652C15.6068 5.652 15.8868 5.904 16.0828 6.268L17.8748 5.302C17.2868 4.308 16.2788 3.804 15.1448 3.804C13.6888 3.804 12.4008 4.574 12.4008 6.1C12.4008 8.522 15.8448 8.116 15.8448 8.886C15.8448 9.166 15.5928 9.32 15.0888 9.32C14.4728 9.32 14.0808 9.026 13.8988 8.494L12.0788 9.53C12.6248 10.664 13.6888 11.196 15.0888 11.196C16.6008 11.196 18.0008 10.51 18.0008 8.9C18.0008 6.31 14.5568 6.842 14.5568 6.044ZM22.9462 6.016V4H21.5042V2.04L19.4042 2.67V4H18.2842V6.016H19.4042V8.494C19.4042 10.454 20.2022 11.28 22.9462 11V9.096C22.0222 9.152 21.5042 9.096 21.5042 8.494V6.016H22.9462ZM25.462 11.196C26.19 11.196 26.792 10.594 26.792 9.866C26.792 9.138 26.19 8.536 25.462 8.536C24.734 8.536 24.132 9.138 24.132 9.866C24.132 10.594 24.734 11.196 25.462 11.196Z" fill="#828282"/>
</svg>
